<svg width="30" height="30" viewBox="0 0 30 30" fill="none" xmlns="http://www.w3.org/2000/svg">
<path d="M26.5416 5.20558C27.5065 5.20558 28.2888 4.42333 28.2888 3.45838C28.2888 2.49343 27.5065 1.71118 26.5416 1.71118C25.5766 1.71118 24.7944 2.49343 24.7944 3.45838C24.7944 4.42333 25.5766 5.20558 26.5416 5.20558Z" fill="white" fill-opacity="0.7"/>
<path d="M15 16.7472C15.965 16.7472 16.7472 15.965 16.7472 15C16.7472 14.0351 15.965 13.2528 15 13.2528C14.0351 13.2528 13.2528 14.0351 13.2528 15C13.2528 15.965 14.0351 16.7472 15 16.7472Z" fill="white" fill-opacity="0.7"/>
<path d="M26.5416 28.2888C27.5065 28.2888 28.2888 27.5066 28.2888 26.5416C28.2888 25.5767 27.5065 24.7944 26.5416 24.7944C25.5766 24.7944 24.7944 25.5767 24.7944 26.5416C24.7944 27.5066 25.5766 28.2888 26.5416 28.2888Z" fill="white" fill-opacity="0.7"/>
<path d="M3.45838 28.2888C4.42333 28.2888 5.20558 27.5066 5.20558 26.5416C5.20558 25.5767 4.42333 24.7944 3.45838 24.7944C2.49343 24.7944 1.71118 25.5767 1.71118 26.5416C1.71118 27.5066 2.49343 28.2888 3.45838 28.2888Z" fill="white" fill-opacity="0.7"/>
<path d="M3.45838 5.20558C4.42333 5.20558 5.20558 4.42333 5.20558 3.45838C5.20558 2.49343 4.42333 1.71118 3.45838 1.71118C2.49343 1.71118 1.71118 2.49343 1.71118 3.45838C1.71118 4.42333 2.49343 5.20558 3.45838 5.20558Z" fill="white" fill-opacity="0.7"/>
<path d="M15.6 26.4H23.7V26.4708C23.7 25.875 23.8263 25.3914 24.1314 24.927L16.6338 17.451C16.3203 17.6609 15.9693 17.8084 15.6 17.8854V26.4ZM5.88177 24.9273C6.18687 25.3914 6.29997 25.8747 6.29997 26.4708V26.4H14.4V17.8854C14.0417 17.8104 13.7007 17.6689 13.3947 17.4681L5.88177 24.9273ZM5.07267 5.88177C4.60857 6.18687 4.12527 6.29997 3.52917 6.29997H3.59997V14.4H12.1146C12.1895 14.0417 12.3311 13.7007 12.5319 13.3947L5.07267 5.88177ZM3.59997 15.6V23.7H3.52917C4.12497 23.7 4.60857 23.8263 5.07267 24.1314L12.5487 16.6335C12.3387 16.32 12.1912 15.969 12.1143 15.5997L3.59997 15.6ZM24.1182 5.07297C23.8131 4.60857 23.7 4.12527 23.7 3.52917V3.59997H15.6V12.1146C15.9582 12.1895 16.2992 12.3311 16.6053 12.5319L24.1182 5.07297ZM14.4 3.59997H6.29997V3.52917C6.29997 4.12497 6.17367 4.60857 5.86857 5.07267L13.3665 12.5487C13.6799 12.3387 14.0309 12.1912 14.4003 12.1143L14.4 3.59997ZM26.4 14.4V6.29997H26.4708C25.875 6.29997 25.3914 6.17367 24.9273 5.86857L17.451 13.3662C17.6609 13.6796 17.8084 14.0306 17.8854 14.4H26.4ZM26.4 15.6H17.8854C17.8104 15.9582 17.6689 16.2992 17.4681 16.6053L24.927 24.1182C25.3914 23.8131 25.8747 23.7 26.4708 23.7H26.4V15.6Z" fill="white" fill-opacity="0.7"/>
</svg>
