<svg width="30" height="30" viewBox="0 0 30 30" fill="none" xmlns="http://www.w3.org/2000/svg">
<path fill-rule="evenodd" clip-rule="evenodd" d="M6.07125 3.75C5.45562 3.75 4.8652 3.99456 4.42988 4.42988C3.99456 4.8652 3.75 5.45562 3.75 6.07125V11.4287C3.75 12.7112 4.78875 13.75 6.07125 13.75H11.4287C12.0444 13.75 12.6348 13.5054 13.0701 13.0701C13.5054 12.6348 13.75 12.0444 13.75 11.4287V6.07125C13.75 5.45562 13.5054 4.8652 13.0701 4.42988C12.6348 3.99456 12.0444 3.75 11.4287 3.75H6.07125ZM18.5713 3.75C17.9556 3.75 17.3652 3.99456 16.9299 4.42988C16.4946 4.8652 16.25 5.45562 16.25 6.07125V11.4287C16.25 12.7112 17.2888 13.75 18.5713 13.75H23.9287C24.5444 13.75 25.1348 13.5054 25.5701 13.0701C26.0054 12.6348 26.25 12.0444 26.25 11.4287V6.07125C26.25 5.45562 26.0054 4.8652 25.5701 4.42988C25.1348 3.99456 24.5444 3.75 23.9287 3.75H18.5713ZM6.07125 16.25C5.45562 16.25 4.8652 16.4946 4.42988 16.9299C3.99456 17.3652 3.75 17.9556 3.75 18.5713V23.9287C3.75 25.2113 4.78875 26.25 6.07125 26.25H11.4287C12.0444 26.25 12.6348 26.0054 13.0701 25.5701C13.5054 25.1348 13.75 24.5444 13.75 23.9287V18.5713C13.75 17.9556 13.5054 17.3652 13.0701 16.9299C12.6348 16.4946 12.0444 16.25 11.4287 16.25H6.07125ZM22.5 17.5C22.5 17.1685 22.3683 16.8505 22.1339 16.6161C21.8995 16.3817 21.5815 16.25 21.25 16.25C20.9185 16.25 20.6005 16.3817 20.3661 16.6161C20.1317 16.8505 20 17.1685 20 17.5V20H17.5C17.1685 20 16.8505 20.1317 16.6161 20.3661C16.3817 20.6005 16.25 20.9185 16.25 21.25C16.25 21.5815 16.3817 21.8995 16.6161 22.1339C16.8505 22.3683 17.1685 22.5 17.5 22.5H20V25C20 25.3315 20.1317 25.6495 20.3661 25.8839C20.6005 26.1183 20.9185 26.25 21.25 26.25C21.5815 26.25 21.8995 26.1183 22.1339 25.8839C22.3683 25.6495 22.5 25.3315 22.5 25V22.5H25C25.3315 22.5 25.6495 22.3683 25.8839 22.1339C26.1183 21.8995 26.25 21.5815 26.25 21.25C26.25 20.9185 26.1183 20.6005 25.8839 20.3661C25.6495 20.1317 25.3315 20 25 20H22.5V17.5Z" fill="white" fill-opacity="0.7"/>
</svg>
